<svg xmlns="http://www.w3.org/2000/svg" xmlns:xlink="http://www.w3.org/1999/xlink" viewBox="-272.059 0 1544.118 1000" style="cursor:pointer"><defs><mask id="d" x="104.454" y="104.007" width="791.092" height="791.986" maskUnits="userSpaceOnUse" stroke-width="0"><path d="M140.413 139.966h719.174v720.068H140.413z"/><use xlink:href="#b" fill="#fff" stroke="#fff"/></mask><mask id="e" x="311.485" y="347.512" width="377.03" height="304.976" maskUnits="userSpaceOnUse" stroke-width="0"><path d="M325.348 361.375h349.305v277.251H325.348z"/><use xlink:href="#c" fill="#fff" stroke="#fff"/></mask><path d="M799.656 500a299.656 299.656 0 1 0-599.312 0 299.656 299.656 0 1 0 599.312 0Z" stroke-linecap="round" stroke-linejoin="round" stroke-miterlimit="25" id="a"/><use xlink:href="#a" stroke-width="0" id="b"/><g fill="#fff" stroke="none" stroke-width="1" id="c"><path stroke="#fff" d="M-382.4 292.1c-1.9 2-4.3 3.4-7.2 4-4.7.9-9.3-.7-12.3-3.9-.6-.6-1.1-1.2-1.5-1.9l15.3-12.8-16.8 9.6c-.2-.5-.3-1-.4-1.6-1.1-5.5 1.4-10.9 5.7-13.8.5-.3 1-.6 1.6-.9.3-.1.6-.3 1-.4.8-.3 1.5-.5 2.4-.7.5-.1.9-.1 1.4-.2 1.6-.5 4.5-1 9.6-1 10 0 13.5-1.5 14.7-3.1 1-1.4-5.6 20.2-13.5 26.7z" style="stroke-miterlimit:10" transform="translate(3546.65 -1700.79) scale(7.832)"/><path fill="none" stroke="#fff" stroke-width="4" style="stroke-miterlimit:10" d="m-409.3 296.7 15.1-12" transform="translate(3546.65 -1700.79) scale(7.832)"/></g></defs><path fill="none" d="M-272.059 0h1544.118v1000H-272.059z"/><g mask="url(#d)"><path fill="#65a765" d="M140.413 139.966h719.174v720.068H140.413z"/></g><g mask="url(#e)"><path fill="#f3f3f3" d="M325.348 361.375h349.305v277.251H325.348z"/></g></svg>